<svg xmlns="http://www.w3.org/2000/svg" viewBox="0 0 512 512">
  <defs>
    <linearGradient id="bg" x1="0" y1="0" x2="1" y2="1">
      <stop offset="0%" stop-color="#FFB74D"/>
      <stop offset="100%" stop-color="#FF7043"/>
    </linearGradient>
  </defs>
  <rect width="512" height="512" rx="108" fill="url(#bg)"/>
  <!-- V -->
  <rect x="39" y="119" width="34" height="34" rx="4" fill="#fff"/>
  <rect x="199" y="119" width="34" height="34" rx="4" fill="#fff"/>
  <rect x="39" y="159" width="34" height="34" rx="4" fill="#fff"/>
  <rect x="199" y="159" width="34" height="34" rx="4" fill="#fff"/>
  <rect x="39" y="199" width="34" height="34" rx="4" fill="#fff"/>
  <rect x="199" y="199" width="34" height="34" rx="4" fill="#fff"/>
  <rect x="79" y="239" width="34" height="34" rx="4" fill="#fff"/>
  <rect x="159" y="239" width="34" height="34" rx="4" fill="#fff"/>
  <rect x="79" y="279" width="34" height="34" rx="4" fill="#fff"/>
  <rect x="159" y="279" width="34" height="34" rx="4" fill="#fff"/>
  <rect x="119" y="319" width="34" height="34" rx="4" fill="#fff"/>
  <rect x="119" y="359" width="34" height="34" rx="4" fill="#fff"/>
  <!-- 2 -->
  <rect x="319" y="119" width="34" height="34" rx="4" fill="#fff"/>
  <rect x="359" y="119" width="34" height="34" rx="4" fill="#fff"/>
  <rect x="399" y="119" width="34" height="34" rx="4" fill="#fff"/>
  <rect x="279" y="159" width="34" height="34" rx="4" fill="#fff"/>
  <rect x="439" y="159" width="34" height="34" rx="4" fill="#fff"/>
  <rect x="439" y="199" width="34" height="34" rx="4" fill="#fff"/>
  <rect x="399" y="239" width="34" height="34" rx="4" fill="#fff"/>
  <rect x="359" y="279" width="34" height="34" rx="4" fill="#fff"/>
  <rect x="319" y="319" width="34" height="34" rx="4" fill="#fff"/>
  <rect x="279" y="359" width="34" height="34" rx="4" fill="#fff"/>
  <rect x="319" y="359" width="34" height="34" rx="4" fill="#fff"/>
  <rect x="359" y="359" width="34" height="34" rx="4" fill="#fff"/>
  <rect x="399" y="359" width="34" height="34" rx="4" fill="#fff"/>
  <rect x="439" y="359" width="34" height="34" rx="4" fill="#fff"/>
</svg>
